<svg version="1.1" xmlns="http://www.w3.org/2000/svg" xmlns:xlink="http://www.w3.org/1999/xlink" width="30px" height="30px" viewBox="0,0,256,256"><g fill="#C6B299" fill-rule="nonzero" stroke="none" stroke-width="1" stroke-linecap="butt" stroke-linejoin="miter" stroke-miterlimit="10" stroke-dasharray="" stroke-dashoffset="0" font-family="none" font-weight="none" font-size="none" text-anchor="none" style="mix-blend-mode: normal"><g transform="translate(0.53333,-0.93333) scale(10.66667,10.66667)"><g><path d="M16.9,7.1c-0.4,-0.4 -1,-0.4 -1.4,0l-8.4,8.4c-0.4,0.4 -0.4,1 0,1.4c0.4,0.4 1,0.4 1.4,0l8.4,-8.4c0.4,-0.4 0.4,-1 0,-1.4z"></path><path d="M8.5,22.5l3.5,-3.5c1.4,-1.4 1.8,-3.5 1.1,-5.3l-1.7,1.7c0,0.8 -0.2,1.6 -0.9,2.3l-3.5,3.5c-1.2,1.2 -3.1,1.2 -4.2,0c-1.2,-1.2 -1.2,-3.1 0,-4.2l3.5,-3.5c0.6,-0.6 1.5,-0.9 2.3,-0.9l1.7,-1.7c-1.8,-0.7 -3.9,-0.4 -5.3,1.1l-3.5,3.5c-1.9,1.9 -1.9,5.1 0,7c1.9,2 5.1,2 7,0z"></path><path d="M13.4,6.4l3.5,-3.5c1.2,-1.2 3.1,-1.2 4.2,0c1.1,1.2 1.2,3.1 0,4.2l-3.5,3.5c-0.6,0.6 -1.5,0.9 -2.3,0.9l-1.7,1.7c1.8,0.7 3.9,0.3 5.3,-1.1l3.5,-3.5c1.9,-1.9 1.9,-5.1 0,-7c-1.9,-1.9 -5.1,-1.9 -7,0l-3.4,3.4c-1.4,1.4 -1.8,3.5 -1.1,5.3l1.7,-1.7c-0.1,-0.8 0.2,-1.6 0.8,-2.2z"></path></g></g></g></svg>