<svg version="1.1" xmlns="http://www.w3.org/2000/svg" xmlns:xlink="http://www.w3.org/1999/xlink" width="" height="" viewBox="0,0,256,256"><g fill="rgb(198, 178, 153)" fill-rule="nonzero" stroke="none" stroke-width="1" stroke-linecap="butt" stroke-linejoin="miter" stroke-miterlimit="10" stroke-dasharray="" stroke-dashoffset="0" font-family="none" font-weight="none" font-size="none" text-anchor="none" style="mix-blend-mode: normal"><g transform="translate(6.835,3.19938) scale(0.5,0.5)"><g id="_1"><path d="M372.83,450h-261c-8.28427,0 -15,-6.71573 -15,-15v-284.43c0,-8.28427 6.71573,-15 15,-15h261c8.28427,0 15,6.71573 15,15v284.43c0,8.28427 -6.71573,15 -15,15zM126.83,420h231v-254.43h-231z"></path><path d="M300.82,218c-8.28427,0 -15,-6.71573 -15,-15v-81.5c-0.50737,-23.66097 -19.83359,-42.57721 -43.5,-42.57721c-23.66641,0 -42.99263,18.91624 -43.5,42.57721v81.5c0,8.28427 -6.71573,15 -15,15c-8.28427,0 -15,-6.71573 -15,-15v-81.5c0.66184,-40.12028 33.37427,-72.29752 73.5,-72.29752c40.12573,0 72.83816,32.17725 73.5,72.29752v81.5c0,8.28427 -6.71573,15 -15,15z"></path></g></g></g></svg>